<svg xmlns="http://www.w3.org/2000/svg" viewBox="0 0 620 860" role="img" aria-labelledby="titleF descF">
  <title id="titleF">Professional Classic CV Preview</title>
  <desc id="descF">A classic professional CV template preview.</desc>
  <rect width="620" height="860" fill="#e7efff"/>
  <rect x="36" y="30" width="548" height="800" rx="14" fill="#ffffff" stroke="#d4deee"/>
  <rect x="36" y="30" width="548" height="132" rx="14" fill="#1e3a8a"/>
  <rect x="64" y="62" width="272" height="30" rx="6" fill="#ffffff"/>
  <rect x="64" y="102" width="186" height="12" rx="4" fill="#bfdbfe"/>
  <rect x="64" y="190" width="150" height="16" rx="5" fill="#1e3a8a"/>
  <rect x="64" y="216" width="492" height="11" rx="4" fill="#e2e8f0"/>
  <rect x="64" y="233" width="470" height="11" rx="4" fill="#e2e8f0"/>
  <rect x="64" y="250" width="486" height="11" rx="4" fill="#e2e8f0"/>
  <rect x="64" y="286" width="170" height="16" rx="5" fill="#1e3a8a"/>
  <rect x="64" y="312" width="492" height="11" rx="4" fill="#ccfbf1"/>
  <rect x="64" y="329" width="492" height="11" rx="4" fill="#ccfbf1"/>
  <rect x="64" y="346" width="492" height="11" rx="4" fill="#ccfbf1"/>
  <rect x="64" y="382" width="118" height="16" rx="5" fill="#1e3a8a"/>
  <rect x="64" y="410" width="232" height="148" rx="10" fill="#f8fafc" stroke="#d4deee"/>
  <rect x="324" y="410" width="232" height="148" rx="10" fill="#f8fafc" stroke="#d4deee"/>
  <rect x="64" y="586" width="492" height="206" rx="12" fill="#f8fafc" stroke="#d4deee"/>
</svg>
