<svg xmlns="http://www.w3.org/2000/svg" viewBox="0 0 620 860" role="img" aria-labelledby="titleB descB">
  <title id="titleB">Modern Focus CV Preview</title>
  <desc id="descB">A modern CV template preview.</desc>
  <rect width="620" height="860" fill="#e9effd"/>
  <rect x="34" y="30" width="552" height="800" rx="18" fill="#ffffff" stroke="#d7e3f8"/>
  <rect x="34" y="30" width="552" height="145" rx="18" fill="#1d4ed8"/>
  <rect x="62" y="62" width="280" height="30" rx="6" fill="#ffffff"/>
  <rect x="62" y="102" width="190" height="14" rx="5" fill="#bfdbfe"/>
  <circle cx="518" cy="98" r="34" fill="#60a5fa"/>
  <rect x="62" y="194" width="130" height="16" rx="5" fill="#2563eb"/>
  <rect x="62" y="220" width="494" height="12" rx="4" fill="#e2e8f0"/>
  <rect x="62" y="238" width="470" height="12" rx="4" fill="#e2e8f0"/>
  <rect x="62" y="256" width="488" height="12" rx="4" fill="#e2e8f0"/>
  <rect x="62" y="292" width="170" height="16" rx="5" fill="#2563eb"/>
  <rect x="62" y="318" width="494" height="12" rx="4" fill="#e0f2fe"/>
  <rect x="62" y="336" width="494" height="12" rx="4" fill="#e0f2fe"/>
  <rect x="62" y="354" width="494" height="12" rx="4" fill="#e0f2fe"/>
  <rect x="62" y="390" width="120" height="16" rx="5" fill="#2563eb"/>
  <rect x="62" y="418" width="230" height="150" rx="10" fill="#f8fafc" stroke="#dbeafe"/>
  <rect x="326" y="418" width="230" height="150" rx="10" fill="#f8fafc" stroke="#dbeafe"/>
  <rect x="62" y="594" width="494" height="200" rx="12" fill="#f8fafc" stroke="#dbeafe"/>
</svg>
